<svg width="20" height="20" viewBox="0 0 22 26" fill="none" xmlns="http://www.w3.org/2000/svg">
    <path d="M22 10.9979C22 13.8191 21.0125 16.3979 19.2213 18.2616C17.5488 19.9979 15.2813 20.9979 13 20.9979C10.765 20.9979 9.2725 20.2654 8.32125 19.4979L6.97375 25.2266C6.92217 25.4461 6.79791 25.6418 6.62115 25.7818C6.44439 25.9218 6.22549 25.9979 6 25.9979C5.92259 25.9978 5.84544 25.989 5.77 25.9716C5.64166 25.9422 5.5204 25.8877 5.41318 25.8112C5.30596 25.7348 5.21489 25.6379 5.14521 25.5262C5.07552 25.4145 5.02859 25.2901 5.0071 25.1601C4.98562 25.0302 4.99 24.8974 5.02 24.7691L9.02 7.76913C9.08067 7.51088 9.24144 7.2873 9.46696 7.14759C9.69247 7.00787 9.96425 6.96347 10.2225 7.02414C10.4808 7.0848 10.7043 7.24558 10.844 7.47109C10.9838 7.6966 11.0282 7.96838 10.9675 8.22664L8.855 17.2016C9.25 17.7479 10.4125 18.9979 13 18.9979C16.4413 18.9979 20 16.0054 20 10.9979C19.9995 9.61772 19.6815 8.25616 19.0707 7.0185C18.4599 5.78083 17.5727 4.70022 16.4776 3.86023C15.3825 3.02023 14.1088 2.44335 12.7552 2.17419C11.4015 1.90503 10.004 1.95081 8.67089 2.30799C7.33774 2.66516 6.10459 3.32416 5.0668 4.23403C4.02901 5.1439 3.21439 6.28026 2.68591 7.55524C2.15744 8.83023 1.92928 10.2097 2.01907 11.5869C2.10886 12.9642 2.5142 14.3023 3.20375 15.4979C3.32814 15.7269 3.35817 15.9955 3.28744 16.2464C3.21672 16.4973 3.05084 16.7106 2.82513 16.841C2.59942 16.9714 2.33173 17.0085 2.07907 16.9444C1.82642 16.8803 1.60877 16.7201 1.4725 16.4979C0.62929 15.0367 0.133484 13.401 0.0234311 11.7176C-0.0866221 10.0341 0.192026 8.34785 0.837825 6.78928C1.48362 5.2307 2.47927 3.84156 3.74775 2.72928C5.01623 1.617 6.52356 0.811396 8.15315 0.374774C9.78274 -0.0618483 11.4909 -0.117787 13.1456 0.211283C14.8003 0.540353 16.3571 1.24561 17.6956 2.27252C19.0341 3.29943 20.1185 4.62045 20.8649 6.13344C21.6113 7.64642 21.9997 9.31081 22 10.9979Z" fill="black"/>
</svg>
    