<svg width="20" height="20" viewBox="0 0 27 24" fill="none" xmlns="http://www.w3.org/2000/svg">
    <path d="M26.9228 3.618C26.8471 3.43526 26.719 3.27906 26.5546 3.16915C26.3901 3.05923 26.1968 3.00055 25.999 3.0005H22.1953C21.6635 2.09573 20.9066 1.34395 19.9982 0.818261C19.0899 0.29257 18.061 0.0108555 17.0115 0.000504387C16.2297 -0.00975088 15.4537 0.136472 14.7291 0.430568C14.0046 0.724665 13.3463 1.16069 12.7928 1.713C12.2231 2.27203 11.771 2.93931 11.4629 3.67561C11.1549 4.41191 10.9972 5.20237 10.999 6.0005V6.76175C5.96652 5.43425 1.85027 1.3405 1.80652 1.29675C1.67236 1.16141 1.50232 1.06721 1.31642 1.02526C1.13052 0.983315 0.936504 0.995361 0.75722 1.05998C0.577937 1.1246 0.420851 1.23911 0.304463 1.39001C0.188075 1.54092 0.117231 1.72194 0.100273 1.91175C-0.438477 7.8855 1.29652 11.883 2.85027 14.1843C3.60787 15.3219 4.5295 16.3412 5.58527 17.2093C3.68152 19.4005 0.684023 20.5518 0.651523 20.5643C0.510415 20.6171 0.383075 20.7012 0.279018 20.8101C0.17496 20.9191 0.0968757 21.0502 0.0505988 21.1936C0.00432194 21.337 -0.00895067 21.489 0.0117723 21.6383C0.0324954 21.7875 0.0866781 21.9301 0.170273 22.0555C0.264023 22.1955 0.639023 22.6868 1.55527 23.1455C2.68777 23.713 4.18402 24.0005 5.99902 24.0005C14.8328 24.0005 22.214 17.198 22.9678 8.4455L26.7065 4.708C26.8463 4.56808 26.9415 4.38983 26.98 4.19581C27.0185 4.00179 26.9986 3.80071 26.9228 3.618ZM21.2978 7.29425C21.1263 7.46612 21.0232 7.69449 21.0078 7.93675C20.499 15.823 13.909 22.0005 5.99902 22.0005C4.67902 22.0005 3.74902 21.8255 3.09652 21.6155C4.53527 20.8343 6.54152 19.4905 7.83152 17.5555C7.90724 17.4417 7.95882 17.3136 7.9831 17.1791C8.00737 17.0446 8.00382 16.9066 7.97266 16.7735C7.9415 16.6405 7.8834 16.5152 7.80194 16.4055C7.72047 16.2957 7.61738 16.2038 7.49902 16.1355C7.44027 16.1018 2.01027 12.843 1.99902 4.1355C3.99902 5.7605 7.65527 8.28175 11.8328 8.98425C11.9759 9.00839 12.1227 9.00107 12.2627 8.96278C12.4028 8.92449 12.5328 8.85617 12.6438 8.76255C12.7548 8.66893 12.844 8.55227 12.9054 8.42068C12.9667 8.28908 12.9987 8.1457 12.999 8.0005V6.0005C12.9979 5.46707 13.1035 4.93879 13.3096 4.44677C13.5157 3.95474 13.8181 3.50891 14.199 3.1355C14.5642 2.76963 14.9991 2.48067 15.4778 2.28573C15.9566 2.09078 16.4696 1.99379 16.9865 2.0005C18.569 2.0205 20.0478 2.9855 20.6665 4.40175C20.7445 4.57981 20.8727 4.73128 21.0355 4.83762C21.1982 4.94395 21.3884 5.00056 21.5828 5.0005H23.5828L21.2978 7.29425Z" fill="black"/>
</svg>
    